<svg width="23" height="21" viewBox="0 0 23 21" fill="none" xmlns="http://www.w3.org/2000/svg">
<path d="M11.5 5.70833C11.5 4.69167 11.0961 3.71665 10.3772 2.99776C9.65836 2.27887 8.68333 1.875 7.66667 1.875H1.91667V16.25H8.625C9.3875 16.25 10.1188 16.5529 10.6579 17.0921C11.1971 17.6312 11.5 18.3625 11.5 19.125M11.5 5.70833V19.125M11.5 5.70833C11.5 4.69167 11.9039 3.71665 12.6228 2.99776C13.3417 2.27887 14.3167 1.875 15.3333 1.875H21.0833V16.25H14.375C13.6125 16.25 12.8812 16.5529 12.3421 17.0921C11.8029 17.6312 11.5 18.3625 11.5 19.125" stroke="#F3F3F3" stroke-width="1.97006" stroke-linecap="round" stroke-linejoin="round"/>
</svg>
