<svg width="36" height="36" viewBox="0 0 36 36" fill="none" xmlns="http://www.w3.org/2000/svg">
<path d="M13.1875 35.5L12.4875 29.9C12.1083 29.7542 11.751 29.5792 11.4156 29.375C11.0802 29.1708 10.7521 28.9521 10.4313 28.7188L5.22501 30.9062L0.412506 22.5938L4.91876 19.1813C4.88959 18.9771 4.87501 18.7802 4.87501 18.5906V17.4094C4.87501 17.2198 4.88959 17.0229 4.91876 16.8187L0.412506 13.4062L5.22501 5.09375L10.4313 7.28125C10.7521 7.04792 11.0875 6.82917 11.4375 6.625C11.7875 6.42083 12.1375 6.24583 12.4875 6.1L13.1875 0.5H22.8125L23.5125 6.1C23.8917 6.24583 24.249 6.42083 24.5844 6.625C24.9198 6.82917 25.2479 7.04792 25.5688 7.28125L30.775 5.09375L35.5875 13.4062L31.0813 16.8187C31.1104 17.0229 31.125 17.2198 31.125 17.4094V18.5906C31.125 18.7802 31.0958 18.9771 31.0375 19.1813L35.5438 22.5938L30.7313 30.9062L25.5688 28.7188C25.2479 28.9521 24.9125 29.1708 24.5625 29.375C24.2125 29.5792 23.8625 29.7542 23.5125 29.9L22.8125 35.5H13.1875ZM18.0875 24.125C19.7792 24.125 21.2229 23.5271 22.4188 22.3313C23.6146 21.1354 24.2125 19.6917 24.2125 18C24.2125 16.3083 23.6146 14.8646 22.4188 13.6688C21.2229 12.4729 19.7792 11.875 18.0875 11.875C16.3667 11.875 14.9156 12.4729 13.7344 13.6688C12.5531 14.8646 11.9625 16.3083 11.9625 18C11.9625 19.6917 12.5531 21.1354 13.7344 22.3313C14.9156 23.5271 16.3667 24.125 18.0875 24.125Z" fill="white"/>
</svg>
